<svg width="24" height="24" viewBox="0 0 24 24" fill="none" xmlns="http://www.w3.org/2000/svg">
<path d="M7.48438 12.9746H12.0201" stroke="#4E2357" stroke-width="1.5" stroke-linecap="round"/>
<path d="M7.48828 9.35059H13.3847" stroke="#4E2357" stroke-width="1.5" stroke-linecap="round"/>
<path d="M7.48438 16.6074H11.1129" stroke="#4E2357" stroke-width="1.5" stroke-linecap="round"/>
<path d="M18.215 4.06278C17.1522 3 15.4417 3 12.0206 3H10.2064C6.78531 3 5.07479 3 4.012 4.06278C2.94922 5.12557 2.94922 6.83609 2.94922 10.2571V13.8857C2.94922 17.3068 2.94922 19.0173 4.012 20.0801C5.07479 21.1429 6.78531 21.1429 10.2064 21.1429H12.0206C15.4417 21.1429 17.1522 21.1429 18.215 20.0801C19.0705 19.2246 19.2374 17.9493 19.2699 15.7" stroke="#4E2357" stroke-width="1.5" stroke-linecap="round"/>
<path d="M19.5 7L19.5 9.5M19.5 9.5L19.5 12M19.5 9.5H17M19.5 9.5L22 9.5" stroke="#4E2357" stroke-width="1.5" stroke-linecap="round"/>
</svg>
