<svg width="24" height="25" viewBox="0 0 24 25" fill="none" xmlns="http://www.w3.org/2000/svg">
<g clip-path="url(#clip0_116_7858)">
<path d="M17.9981 7.28067C17.9381 7.27067 17.8681 7.27067 17.8081 7.28067C16.4281 7.23067 15.3281 6.10067 15.3281 4.70067C15.3281 3.27067 16.4781 2.12067 17.9081 2.12067C19.3381 2.12067 20.4881 3.28067 20.4881 4.70067C20.4781 6.10067 19.3781 7.23067 17.9981 7.28067Z" stroke="#A6A4A4" stroke-width="1.5" stroke-linecap="round" stroke-linejoin="round"/>
<path d="M16.9675 14.5608C18.3375 14.7908 19.8475 14.5508 20.9075 13.8408C22.3175 12.9008 22.3175 11.3608 20.9075 10.4208C19.8375 9.71083 18.3075 9.47082 16.9375 9.71082" stroke="#A6A4A4" stroke-width="1.5" stroke-linecap="round" stroke-linejoin="round"/>
<path d="M5.97047 7.28067C6.03047 7.27067 6.10047 7.27067 6.16047 7.28067C7.54047 7.23067 8.64047 6.10067 8.64047 4.70067C8.64047 3.27067 7.49047 2.12067 6.06047 2.12067C4.63047 2.12067 3.48047 3.28067 3.48047 4.70067C3.49047 6.10067 4.59047 7.23067 5.97047 7.28067Z" stroke="#A6A4A4" stroke-width="1.5" stroke-linecap="round" stroke-linejoin="round"/>
<path d="M7.0014 14.5607C5.6314 14.7907 4.12141 14.5507 3.06141 13.8407C1.65141 12.9007 1.65141 11.3607 3.06141 10.4207C4.13141 9.71068 5.6614 9.47067 7.0314 9.71067" stroke="#A6A4A4" stroke-width="1.5" stroke-linecap="round" stroke-linejoin="round"/>
<path d="M11.9981 14.7514C11.9381 14.7414 11.8681 14.7414 11.8081 14.7514C10.4281 14.7014 9.32812 13.5714 9.32812 12.1714C9.32812 10.7414 10.4781 9.59137 11.9081 9.59137C13.3381 9.59137 14.4881 10.7514 14.4881 12.1714C14.4781 13.5714 13.3781 14.7114 11.9981 14.7514Z" stroke="#A6A4A4" stroke-width="1.5" stroke-linecap="round" stroke-linejoin="round"/>
<path d="M9.08875 17.902C7.67875 18.842 7.67875 20.382 9.08875 21.322C10.6888 22.392 13.3087 22.392 14.9087 21.322C16.3187 20.382 16.3187 18.842 14.9087 17.902C13.3187 16.842 10.6888 16.842 9.08875 17.902Z" stroke="#A6A4A4" stroke-width="1.5" stroke-linecap="round" stroke-linejoin="round"/>
</g>
<defs>
<clipPath id="clip0_116_7858">
<rect width="24" height="24" fill="white" transform="translate(0 0.120667)"/>
</clipPath>
</defs>
</svg>
