<svg width="24" height="24" viewBox="0 0 24 24" fill="none" xmlns="http://www.w3.org/2000/svg">
<path d="M16.7332 2.6294C14.4495 2.00184 13.3076 1.68806 12.3194 1.92435C11.5392 2.11093 10.8304 2.5306 10.2827 3.1303C9.68885 3.78057 9.37916 4.73253 8.9183 6.46286C8.84089 6.75351 8.75921 7.06612 8.6712 7.40295L8.14699 9.40935C7.53506 11.7515 7.22909 12.9225 7.4595 13.9359C7.64143 14.7361 8.05065 15.463 8.6354 16.0247C9.37599 16.736 10.5179 17.0498 12.8016 17.6774C14.86 18.243 15.9908 18.5538 16.9175 18.4365C17.0189 18.4237 17.1179 18.4057 17.2154 18.3824C17.9957 18.1959 18.7044 17.7762 19.2521 17.1765C19.9458 16.417 20.2517 15.2459 20.8637 12.9038L20.998 12" stroke="white" stroke-width="1.5" stroke-linecap="round"/>
<path d="M16.613 18.0934C16.3994 18.7376 16.0237 19.3204 15.5187 19.7863C14.7695 20.4774 13.6142 20.7822 11.3037 21.3919C8.99321 22.0016 7.83796 22.3064 6.83821 22.0768C6.04881 21.8956 5.33173 21.4879 4.77763 20.9053C4.07588 20.1674 3.76633 19.0297 3.14723 16.7543L2.61687 14.8051C1.99778 12.5298 1.68823 11.3921 1.92134 10.4075C2.1054 9.63014 2.51941 8.92396 3.11101 8.37829C3.86027 7.68721 5.01552 7.38236 7.32602 6.77268C7.76313 6.65734 8.1589 6.55291 8.52009 6.46094" stroke="white" stroke-width="1.5"/>
<path d="M11.8125 9.9707L16.7168 11.2848" stroke="white" stroke-width="1.5" stroke-linecap="round"/>
<path d="M11.0234 12.9121L13.966 13.7006" stroke="white" stroke-width="1.5" stroke-linecap="round"/>
<path d="M23 6.50002H20.5M20.5 6.50002H18M20.5 6.50002L20.5 4M20.5 6.50002L20.5 9" stroke="white" stroke-width="1.5" stroke-linecap="round"/>
</svg>
