<svg width="24" height="24" viewBox="0 0 24 24" fill="none" xmlns="http://www.w3.org/2000/svg">
<path d="M4.01953 10.0794C4.01953 6.45903 4.01953 4.64883 5.14424 3.52412C6.26895 2.39941 8.07914 2.39941 11.6995 2.39941H13.6195C17.2399 2.39941 19.0501 2.39941 20.1748 3.52412C21.2995 4.64883 21.2995 6.45903 21.2995 10.0794V13.9194C21.2995 17.5398 21.2995 19.35 20.1748 20.4747C19.0501 21.5994 17.2399 21.5994 13.6195 21.5994H11.6995C8.07914 21.5994 6.26895 21.5994 5.14424 20.4747C4.01953 19.35 4.01953 17.5398 4.01953 13.9194V10.0794Z" stroke="#4E2357" stroke-width="1.5"/>
<path d="M8.82031 12H16.5003" stroke="#4E2357" stroke-width="1.5" stroke-linecap="round"/>
<path d="M8.82031 8.16113H16.5003" stroke="#4E2357" stroke-width="1.5" stroke-linecap="round"/>
<path d="M8.82031 15.8398H13.6203" stroke="#4E2357" stroke-width="1.5" stroke-linecap="round"/>
</svg>
