<svg width="26" height="30" viewBox="0 0 26 30" fill="none" xmlns="http://www.w3.org/2000/svg">
<path d="M25.0763 25.7987C25.0763 27.787 23.4645 29.3987 21.4763 29.3987H4.33243C2.3442 29.3987 0.732422 27.787 0.732422 25.7987V4.45937C0.732422 2.47115 2.3442 0.859375 4.33242 0.859375H14.9719C15.6663 0.859375 16.3374 1.11029 16.8614 1.56591L24.0858 7.84664C24.715 8.39362 25.0763 9.18641 25.0763 10.0201V25.7987Z" fill="#884A95"/>
<path d="M7.27539 13.9932L18.5374 13.9932" stroke="white" stroke-width="1.6" stroke-linecap="round"/>
<path d="M7.27539 18.4336L18.5374 18.4336" stroke="white" stroke-width="1.6" stroke-linecap="round"/>
<path d="M7.27539 22.8721L15.3197 22.8721" stroke="white" stroke-width="1.6" stroke-linecap="round"/>
<path d="M24.6861 8.39712C24.8868 8.57203 24.7631 8.90222 24.4969 8.90222H17.3859C16.477 8.90222 15.7402 8.16541 15.7402 7.25651V1.23269C15.7402 0.985509 16.0311 0.853171 16.2175 1.01558L24.6861 8.39712Z" fill="#BA71CA"/>
</svg>
