<svg width="24" height="24" viewBox="0 0 24 24" fill="none" xmlns="http://www.w3.org/2000/svg">
<path d="M14.6601 2C13.2099 2 11.8191 2.534 10.7937 3.48453C9.76821 4.43505 9.19212 5.72425 9.19212 7.06849V9.89041H6.26601C6.11941 9.89041 6 10 6 10.137V13.863C6 13.9989 6.11823 14.1096 6.26601 14.1096H9.19212V21.7534C9.19212 21.8893 9.31034 22 9.45813 22H13.4778C13.6244 22 13.7438 21.8904 13.7438 21.7534V14.1096H16.696C16.8177 14.1096 16.9241 14.0329 16.9537 13.9233L17.9586 10.1973C17.9685 10.1609 17.9693 10.1229 17.961 10.0862C17.9527 10.0495 17.9354 10.0151 17.9106 9.98551C17.8857 9.95592 17.8539 9.93198 17.8176 9.9155C17.7812 9.89902 17.7413 9.89044 17.7009 9.89041H13.7438V7.06849C13.7438 6.95696 13.7675 6.84652 13.8136 6.74347C13.8596 6.64043 13.9271 6.5468 14.0122 6.46794C14.0973 6.38907 14.1983 6.32651 14.3095 6.28383C14.4206 6.24115 14.5398 6.21918 14.6601 6.21918H17.734C17.8806 6.21918 18 6.10959 18 5.9726V2.24658C18 2.11068 17.8818 2 17.734 2H14.6601Z" fill="white"/>
</svg>
