<svg width="50" height="50" viewBox="0 0 50 50" fill="none" xmlns="http://www.w3.org/2000/svg">
<path d="M22.2955 18.738C23.4988 16.5793 24.1005 15.5 25 15.5C25.8995 15.5 26.5012 16.5793 27.7045 18.738L28.0158 19.2964C28.3578 19.9098 28.5287 20.2165 28.7953 20.4189C29.0619 20.6213 29.3939 20.6964 30.0579 20.8466L30.6624 20.9834C32.9991 21.5121 34.1675 21.7765 34.4455 22.6703C34.7234 23.5642 33.9269 24.4956 32.3339 26.3584L31.9218 26.8404C31.4691 27.3697 31.2428 27.6344 31.1409 27.9618C31.0391 28.2893 31.0733 28.6424 31.1418 29.3487L31.2041 29.9917C31.4449 32.4771 31.5653 33.7198 30.8376 34.2722C30.1099 34.8246 29.016 34.321 26.8281 33.3136L26.2621 33.053C25.6404 32.7667 25.3295 32.6236 25 32.6236C24.6705 32.6236 24.3596 32.7667 23.7379 33.053L23.1719 33.3136C20.984 34.321 19.8901 34.8246 19.1624 34.2722C18.4347 33.7198 18.5551 32.4771 18.7959 29.9917L18.8582 29.3487C18.9267 28.6424 18.9609 28.2893 18.8591 27.9618C18.7572 27.6344 18.5309 27.3697 18.0782 26.8404L17.6661 26.3584C16.0731 24.4956 15.2766 23.5642 15.5545 22.6703C15.8325 21.7765 17.0009 21.5121 19.3376 20.9834L19.9421 20.8466C20.6061 20.6964 20.9381 20.6213 21.2047 20.4189C21.4713 20.2165 21.6422 19.9098 21.9842 19.2964L22.2955 18.738Z" stroke="#4E2357" stroke-width="2.5"/>
<path d="M25 6V10.2222" stroke="#4E2357" stroke-width="2.5" stroke-linecap="round"/>
<path d="M25 39.7778V44.0001" stroke="#4E2357" stroke-width="2.5" stroke-linecap="round"/>
<path d="M6 25L10.2222 25" stroke="#4E2357" stroke-width="2.5" stroke-linecap="round"/>
<path d="M39.7773 25L43.9996 25" stroke="#4E2357" stroke-width="2.5" stroke-linecap="round"/>
<path d="M13.5977 36.4004L14.2495 35.7486" stroke="#4E2357" stroke-width="2.5" stroke-linecap="round"/>
<path d="M35.75 14.252L36.4022 13.5997" stroke="#4E2357" stroke-width="2.5" stroke-linecap="round"/>
<path d="M36.4023 36.4004L35.7505 35.7486" stroke="#4E2357" stroke-width="2.5" stroke-linecap="round"/>
<path d="M14.25 14.252L13.5978 13.5997" stroke="#4E2357" stroke-width="2.5" stroke-linecap="round"/>
</svg>
