<svg width="24" height="25" viewBox="0 0 24 25" fill="none" xmlns="http://www.w3.org/2000/svg">
<path d="M3 22.1206V12.1206C3 10.235 3 9.29218 3.58579 8.70639C4.17157 8.12061 5.11438 8.12061 7 8.12061C8.88562 8.12061 9.82843 8.12061 10.4142 8.70639C11 9.29218 11 10.235 11 12.1206" stroke="#A6A4A4" stroke-width="1.5"/>
<path d="M17 22.1206V16.1206C17 14.235 17 13.2922 16.4142 12.7064C15.8284 12.1206 14.8856 12.1206 13 12.1206H11C9.11438 12.1206 8.17157 12.1206 7.58579 12.7064C7 13.2922 7 14.235 7 16.1206V22.1206" stroke="#A6A4A4" stroke-width="1.5"/>
<path d="M21 22.1206V7.91183C21 6.57279 21 5.90328 20.6439 5.39005C20.2877 4.87682 19.66 4.64174 18.4045 4.17157C15.9492 3.2521 14.7216 2.79236 13.8608 3.3881C13 3.98383 13 5.29316 13 7.91183V12.1341" stroke="#A6A4A4" stroke-width="1.5"/>
<path d="M4 8.12061V6.40632C4 5.32882 4 4.79008 4.29289 4.45534C4.58579 4.12061 5.05719 4.12061 6 4.12061H8C8.94281 4.12061 9.41421 4.12061 9.70711 4.45534C10 4.79008 10 5.32882 10 6.40632V8.12061" stroke="#A6A4A4" stroke-width="1.5" stroke-linecap="round"/>
<path d="M7 4.12061V2.12061" stroke="#A6A4A4" stroke-width="1.5" stroke-linecap="round"/>
<path d="M22 22.1206L2 22.1206" stroke="#A6A4A4" stroke-width="1.5" stroke-linecap="round"/>
<path d="M10 15.1206H14" stroke="#A6A4A4" stroke-width="1.5" stroke-linecap="round"/>
<path d="M10 18.1206H14" stroke="#A6A4A4" stroke-width="1.5" stroke-linecap="round"/>
</svg>
