<svg width="24" height="24" viewBox="0 0 24 24" fill="none" xmlns="http://www.w3.org/2000/svg">
<path d="M2.03516 10.8928C2.03516 6.71753 2.03516 4.62934 3.3328 3.3328C4.62934 2.03516 6.71753 2.03516 10.8928 2.03516H13.1072C17.2825 2.03516 19.3707 2.03516 20.6672 3.3328C21.9648 4.62934 21.9648 6.71753 21.9648 10.8928V13.1072C21.9648 17.2825 21.9648 19.3707 20.6672 20.6672C19.3707 21.9648 17.2825 21.9648 13.1072 21.9648H10.8928C6.71753 21.9648 4.62934 21.9648 3.3328 20.6672C2.03516 19.3707 2.03516 17.2825 2.03516 13.1072V10.8928Z" stroke="white" stroke-width="2"/>
<path d="M16.9811 8.67708C17.8984 8.67708 18.6419 7.93351 18.6419 7.01628C18.6419 6.09904 17.8984 5.35547 16.9811 5.35547C16.0639 5.35547 15.3203 6.09904 15.3203 7.01628C15.3203 7.93351 16.0639 8.67708 16.9811 8.67708Z" fill="white"/>
<path d="M12.0013 15.3229C13.8358 15.3229 15.3229 13.8358 15.3229 12.0013C15.3229 10.1668 13.8358 8.67969 12.0013 8.67969C10.1668 8.67969 8.67969 10.1668 8.67969 12.0013C8.67969 13.8358 10.1668 15.3229 12.0013 15.3229Z" stroke="white" stroke-width="2"/>
</svg>
