<svg width="24" height="24" viewBox="0 0 24 24" fill="none" xmlns="http://www.w3.org/2000/svg">
<path d="M5.98042 7.67059H5.95653C5.70351 7.68636 5.44996 7.64986 5.21174 7.56337C4.97352 7.47687 4.75577 7.34225 4.57212 7.16793C4.38847 6.99361 4.24288 6.78334 4.14446 6.5503C4.04604 6.31725 3.99691 6.06645 4.00015 5.81359C4.00339 5.56073 4.05893 5.31126 4.1633 5.08081C4.26766 4.85035 4.41859 4.64387 4.60665 4.47429C4.79471 4.30471 5.01584 4.17568 5.2562 4.0953C5.49656 4.01491 5.75097 3.98488 6.00349 4.00711C6.25651 3.98948 6.51045 4.02417 6.7494 4.10901C6.98835 4.19385 7.20716 4.32702 7.3921 4.50015C7.57705 4.67329 7.72415 4.88267 7.82419 5.11516C7.92422 5.34766 7.97504 5.59826 7.97344 5.85127C7.97185 6.10427 7.91788 6.35421 7.81493 6.58544C7.71197 6.81666 7.56224 7.02418 7.37513 7.19499C7.18802 7.36579 6.96755 7.4962 6.72756 7.57804C6.48756 7.65988 6.2332 7.69139 5.98042 7.67059ZM4.34395 10.1365H7.63996V20H4.34395V10.1365ZM16.292 10.1365C15.7366 10.138 15.1887 10.2646 14.6893 10.507C14.1899 10.7494 13.7519 11.1013 13.408 11.5363V10.1365H10.112V20H13.408V15.4792C13.408 15.0432 13.5816 14.6251 13.8907 14.3168C14.1997 14.0085 14.6189 13.8353 15.056 13.8353C15.4931 13.8353 15.9122 14.0085 16.2213 14.3168C16.5304 14.6251 16.704 15.0432 16.704 15.4792V20H20V13.8353C20 12.8543 19.6093 11.9135 18.9139 11.2198C18.2186 10.5262 17.2754 10.1365 16.292 10.1365Z" fill="white"/>
</svg>
