<svg width="150" height="28" viewBox="0 0 150 28" fill="none" xmlns="http://www.w3.org/2000/svg">
<path fill-rule="evenodd" clip-rule="evenodd" d="M8.25293 27.2605L18.4132 5.53025C18.5524 5.23217 18.8712 5.07534 19.1926 5.14653C19.5139 5.218 19.7363 5.4951 19.7363 5.82409V26.9661C19.7363 27.3484 20.0482 27.6604 20.4306 27.6604H27.1908C27.5731 27.6604 27.8851 27.3484 27.8851 26.9661V19.86V8.62368C27.8851 8.43252 27.817 8.26802 27.6818 8.13274L19.7524 0.203352C19.6171 0.068066 19.4526 0 19.2615 0H12.9802C12.7043 0 12.4683 0.150313 12.3515 0.400181L0.0677781 26.672C-0.0357417 26.8935 -0.0201423 27.1326 0.110888 27.3388C0.242202 27.5449 0.452359 27.6601 0.696552 27.6601H7.62444C7.9004 27.6601 8.13636 27.5098 8.25321 27.2599L8.25293 27.2605Z" fill="#4E2357"/>
<path fill-rule="evenodd" clip-rule="evenodd" d="M35.0411 27.6604H41.8014C42.1837 27.6604 42.4957 27.3484 42.4957 26.9661V8.62368C42.4957 8.43252 42.4276 8.26802 42.2923 8.13274L34.363 0.203352C34.2277 0.068066 34.0632 0 33.872 0H27.5321C27.2453 0 27.0006 0.163657 26.8908 0.428556C26.7811 0.693455 26.8383 0.982176 27.0411 1.18496L34.1437 8.28759C34.279 8.42288 34.3471 8.58738 34.3471 8.77854V26.9664C34.3471 27.3487 34.6591 27.6607 35.0414 27.6607L35.0411 27.6604Z" fill="#4E2357"/>
<path d="M49.7305 1.5918H54.4645L62.6954 21.6894H62.9983L71.2292 1.5918H75.9632V27.446H72.2517V8.73704H72.0119L64.387 27.4081H61.3067L53.6818 8.72442H53.4419V27.446H49.7305V1.5918Z" fill="#4E2357"/>
<path d="M85.0881 27.999C83.8558 27.999 82.7477 27.7738 81.7585 27.3177C80.7689 26.8676 79.987 26.198 79.4062 25.321C78.8256 24.4381 78.5352 23.3658 78.5352 22.092C78.5352 20.9899 78.7484 20.0835 79.169 19.3784C79.5956 18.6733 80.1643 18.1106 80.8753 17.7016C81.5863 17.287 82.3861 16.9787 83.269 16.7714C84.1519 16.5641 85.0524 16.4101 85.9707 16.2975C87.1319 16.1673 88.074 16.0547 88.791 15.9656C89.5139 15.8768 90.0352 15.7285 90.3671 15.5271C90.6989 15.3258 90.8708 14.9999 90.8708 14.5436V14.4548C90.8708 13.3529 90.5568 12.4995 89.9405 11.8951C89.3185 11.2848 88.4002 10.9827 87.1795 10.9827C85.9117 10.9827 84.9103 11.2613 84.1817 11.8183C83.4528 12.375 82.9553 12.9973 82.6768 13.6845L79.0386 13.6516C80.9941 8.20556 87.1721 6.12239 92.05 9.19935C92.8203 9.67924 93.4483 10.3664 93.9281 11.2493C94.414 12.1322 94.6567 13.2815 94.6567 14.6976V27.5724H90.9714V22.9026C90.2465 26.3855 88.7422 27.999 85.0881 27.999ZM85.9058 24.9713C86.9605 24.9713 87.8551 24.764 88.5956 24.355C89.3361 23.9404 89.905 23.4012 90.2961 22.7316C90.6873 22.062 90.8827 21.3453 90.8827 20.5809V18.0806C90.7048 18.2584 90.3197 18.4124 89.7215 18.5485C89.1231 18.6787 88.4892 18.7913 87.8256 18.8863C87.1619 18.981 86.6227 19.0582 86.2081 19.1115C85.1179 19.2596 84.182 19.544 83.3997 19.9765C82.6235 20.415 82.2327 21.132 82.2327 22.1451C82.2327 23.0754 82.5761 23.7804 83.2696 24.2603C83.957 24.7342 84.8397 24.9713 85.9061 24.9713H85.9058Z" fill="#4E2357"/>
<path d="M109.415 19.534V8.18193H113.207V27.574H109.492L109.522 22.7877C108.539 26.1341 106.835 27.8287 103.496 27.8287C101.636 27.8287 100.113 27.2124 98.9222 25.9741C97.7313 24.7418 97.1328 22.9227 97.1328 20.5173V8.18164H100.907V20.061C100.907 21.3821 101.274 22.4368 102.009 23.2191C102.738 24.001 103.691 24.3921 104.859 24.3921C105.57 24.3921 106.275 24.2143 106.974 23.8649C107.679 23.5095 108.259 22.9703 108.727 22.2533C109.195 21.5307 109.426 20.624 109.415 19.5337L109.415 19.534Z" fill="#4E2357"/>
<path d="M132.315 8.0918L125.283 27.4824H121.243L114.199 8.0918H118.252L123.162 23.0135H123.364L128.262 8.0918H132.315Z" fill="#4E2357"/>
<path d="M140.993 27.9636C139.091 27.9636 137.449 27.5489 136.069 26.7253C134.689 25.9017 133.628 24.7405 132.881 23.2473C132.135 21.754 131.762 20.0064 131.762 18.0038C131.762 16.019 132.135 14.2651 132.881 12.7543C133.628 11.2375 134.671 10.0525 136.01 9.20537C137.355 8.35225 138.925 7.93164 140.726 7.93164C142.189 7.93164 143.576 8.25752 144.885 8.90928C146.195 9.56103 147.261 10.5979 148.079 12.026C148.902 13.454 149.311 15.338 149.311 17.6785V19.0115H135.524C135.577 20.8836 136.099 22.3235 137.106 23.3307C138.107 24.3438 139.411 24.8475 141.028 24.8475C142.107 24.8475 143.037 24.6163 143.819 24.1543C144.601 23.6863 145.164 22.9988 145.496 22.0808L149.217 22.1321C148.123 26.1595 145.012 27.9641 140.993 27.9641V27.9636ZM135.536 16.1849H145.614C145.602 14.7039 145.158 13.4772 144.275 12.5055C143.392 11.5339 142.213 11.048 140.75 11.048C139.731 11.048 138.842 11.2849 138.084 11.7591C137.319 12.2389 136.721 12.8609 136.276 13.6431C135.832 14.4194 135.589 15.2666 135.536 16.1849Z" fill="#4E2357"/>
</svg>
