<svg width="24" height="25" viewBox="0 0 24 25" fill="none" xmlns="http://www.w3.org/2000/svg">
<path d="M9 7.37061C9.01211 5.08683 9.10857 3.85002 9.87706 3.04322C10.7559 2.12061 12.1703 2.12061 14.9991 2.12061L15.9992 2.12061C18.828 2.12061 20.2424 2.12061 21.1212 3.04322C22 3.96583 22 5.45076 22 8.42061L22 16.8206C22 19.7905 22 21.2754 21.1212 22.198C20.2424 23.1206 18.828 23.1206 15.9992 23.1206H14.9991C12.1703 23.1206 10.7559 23.1206 9.87706 22.198C9.10857 21.3912 9.01211 20.1544 9 17.8706" stroke="#292929" stroke-width="1.5" stroke-linecap="round"/>
<path d="M14 12.6206L1 12.6206M1 12.6206L4.5 9.12061M1 12.6206L4.5 16.1206" stroke="#292929" stroke-width="1.5" stroke-linecap="round" stroke-linejoin="round"/>
</svg>
