<svg width="150" height="28" viewBox="0 0 150 28" fill="none" xmlns="http://www.w3.org/2000/svg">
<path fill-rule="evenodd" clip-rule="evenodd" d="M8.25293 27.2605L18.4132 5.53025C18.5524 5.23217 18.8712 5.07534 19.1926 5.14653C19.5139 5.218 19.7363 5.4951 19.7363 5.82409V26.9661C19.7363 27.3484 20.0482 27.6604 20.4306 27.6604H27.1908C27.5731 27.6604 27.8851 27.3484 27.8851 26.9661V19.86V8.62368C27.8851 8.43252 27.817 8.26802 27.6818 8.13274L19.7524 0.203352C19.6171 0.068066 19.4526 0 19.2615 0H12.9802C12.7043 0 12.4683 0.150313 12.3515 0.400181L0.0677781 26.672C-0.0357417 26.8935 -0.0201423 27.1326 0.110888 27.3388C0.242202 27.5449 0.452359 27.6601 0.696552 27.6601H7.62444C7.9004 27.6601 8.13636 27.5098 8.25321 27.2599L8.25293 27.2605Z" fill="#020202"/>
<path fill-rule="evenodd" clip-rule="evenodd" d="M35.0408 27.6609H41.8011C42.1834 27.6609 42.4954 27.3489 42.4954 26.9666V8.62417C42.4954 8.43301 42.4273 8.26851 42.292 8.13323L34.3627 0.20384C34.2274 0.0685543 34.0629 0.000488281 33.8718 0.000488281H27.5318C27.2451 0.000488281 27.0003 0.164146 26.8905 0.429045C26.7808 0.693944 26.8381 0.982664 27.0409 1.18545L34.1435 8.28808C34.2787 8.42337 34.3468 8.58787 34.3468 8.77902V26.9669C34.3468 27.3492 34.6588 27.6612 35.0411 27.6612L35.0408 27.6609Z" fill="#020202"/>
<path d="M49.7307 1.59229H54.4647L62.6956 21.6899H62.9986L71.2294 1.59229H75.9635V27.4465H72.252V8.73753H72.0121L64.3872 27.4086H61.307L53.682 8.72491H53.4422V27.4465H49.7307V1.59229Z" fill="#020202"/>
<path d="M85.0881 28.0004C83.8558 28.0004 82.7477 27.7752 81.7584 27.3192C80.7689 26.8691 79.987 26.1995 79.4061 25.3225C78.8255 24.4396 78.5351 23.3672 78.5351 22.0935C78.5351 20.9914 78.7484 20.0849 79.169 19.3799C79.5956 18.6748 80.1642 18.1121 80.8752 17.7031C81.5863 17.2885 82.3861 16.9802 83.2689 16.7728C84.1518 16.5655 85.0523 16.4115 85.9707 16.2989C87.1318 16.1687 88.074 16.0561 88.791 15.9671C89.5139 15.8783 90.0352 15.73 90.367 15.5286C90.6988 15.3272 90.8707 15.0014 90.8707 14.545V14.4562C90.8707 13.3544 90.5567 12.501 89.9404 11.8966C89.3185 11.2863 88.4001 10.9842 87.1794 10.9842C85.9117 10.9842 84.9102 11.2627 84.1816 11.8197C83.4527 12.3765 82.9553 12.9987 82.6768 13.686L79.0385 13.653C80.9941 8.20702 87.1721 6.12385 92.05 9.20082C92.8203 9.6807 93.4482 10.3679 93.9281 11.2508C94.4139 12.1337 94.6567 13.2829 94.6567 14.699V27.5739H90.9714V22.9041C90.2465 26.3869 88.7422 28.0004 85.0881 28.0004ZM85.9057 24.9728C86.9605 24.9728 87.855 24.7655 88.5955 24.3565C89.3361 23.9419 89.905 23.4027 90.2961 22.7331C90.6872 22.0634 90.8826 21.3467 90.8826 20.5824V18.082C90.7048 18.2599 90.3196 18.4139 89.7215 18.55C89.1231 18.6802 88.4892 18.7928 87.8255 18.8878C87.1619 18.9825 86.6227 19.0596 86.2081 19.113C85.1178 19.261 84.1819 19.5455 83.3997 19.978C82.6234 20.4165 82.2326 21.1335 82.2326 22.1466C82.2326 23.0768 82.5761 23.7819 83.2695 24.2618C83.957 24.7357 84.8396 24.9728 85.906 24.9728H85.9057Z" fill="#020202"/>
<path d="M109.415 19.5335V8.18144H113.207V27.5735H109.493L109.522 22.7872C108.539 26.1336 106.835 27.8282 103.497 27.8282C101.636 27.8282 100.114 27.2119 98.9225 25.9736C97.7316 24.7413 97.1331 22.9222 97.1331 20.5168V8.18115H100.907V20.0605C100.907 21.3816 101.275 22.4363 102.009 23.2186C102.738 24.0005 103.692 24.3916 104.859 24.3916C105.57 24.3916 106.275 24.2138 106.974 23.8644C107.679 23.509 108.26 22.9698 108.728 22.2529C109.196 21.5302 109.427 20.6235 109.415 19.5332L109.415 19.5335Z" fill="#020202"/>
<path d="M132.315 8.0918L125.283 27.4824H121.243L114.199 8.0918H118.251L123.162 23.0135H123.364L128.262 8.0918H132.315Z" fill="#020202"/>
<path d="M140.995 27.965C139.093 27.965 137.451 27.5504 136.071 26.7268C134.691 25.9031 133.63 24.742 132.883 23.2488C132.137 21.7555 131.764 20.0079 131.764 18.0052C131.764 16.0205 132.137 14.2666 132.883 12.7557C133.63 11.239 134.673 10.054 136.012 9.20684C137.357 8.35371 138.927 7.93311 140.728 7.93311C142.191 7.93311 143.578 8.25899 144.887 8.91074C146.197 9.5625 147.263 10.5994 148.081 12.0274C148.904 13.4554 149.313 15.3395 149.313 17.6799V19.0129H135.526C135.579 20.8851 136.101 22.325 137.108 23.3321C138.109 24.3452 139.413 24.8489 141.03 24.8489C142.109 24.8489 143.039 24.6178 143.821 24.1558C144.603 23.6878 145.166 23.0003 145.498 22.0822L149.219 22.1336C148.125 26.1609 145.014 27.9656 140.995 27.9656V27.965ZM135.538 16.1864H145.616C145.604 14.7053 145.16 13.4787 144.277 12.507C143.394 11.5353 142.215 11.0495 140.752 11.0495C139.733 11.0495 138.844 11.2863 138.086 11.7605C137.321 12.2404 136.723 12.8624 136.278 13.6446C135.834 14.4209 135.591 15.268 135.538 16.1864Z" fill="#020202"/>
</svg>
