<svg width="150" height="32" viewBox="0 0 150 32" fill="none" xmlns="http://www.w3.org/2000/svg">
<path fill-rule="evenodd" clip-rule="evenodd" d="M8.25293 29.2605L18.4132 7.53025C18.5524 7.23217 18.8712 7.07534 19.1926 7.14653C19.5139 7.218 19.7363 7.4951 19.7363 7.82409V28.9661C19.7363 29.3484 20.0482 29.6604 20.4306 29.6604H27.1908C27.5731 29.6604 27.8851 29.3484 27.8851 28.9661V21.86V10.6237C27.8851 10.4325 27.817 10.268 27.6818 10.1327L19.7524 2.20335C19.6171 2.06807 19.4526 2 19.2615 2H12.9802C12.7043 2 12.4683 2.15031 12.3515 2.40018L0.0677781 28.672C-0.0357417 28.8935 -0.0201423 29.1326 0.110888 29.3388C0.242202 29.5449 0.452359 29.6601 0.696552 29.6601H7.62444C7.9004 29.6601 8.13636 29.5098 8.25321 29.2599L8.25293 29.2605Z" fill="white"/>
<path fill-rule="evenodd" clip-rule="evenodd" d="M35.0411 29.6614H41.8014C42.1837 29.6614 42.4957 29.3494 42.4957 28.9671V10.6247C42.4957 10.4335 42.4276 10.269 42.2923 10.1337L34.363 2.20433C34.2277 2.06904 34.0632 2.00098 33.872 2.00098H27.5321C27.2453 2.00098 27.0006 2.16463 26.8908 2.42953C26.7811 2.69443 26.8383 2.98315 27.0411 3.18594L34.1437 10.2886C34.279 10.4239 34.3471 10.5884 34.3471 10.7795V28.9674C34.3471 29.3497 34.6591 29.6617 35.0414 29.6617L35.0411 29.6614Z" fill="white"/>
<path d="M49.7305 3.5918H54.4645L62.6954 23.6894H62.9983L71.2292 3.5918H75.9632V29.446H72.2517V10.737H72.0119L64.387 29.4081H61.3067L53.6818 10.7244H53.4419V29.446H49.7305V3.5918Z" fill="white"/>
<path d="M85.0881 29.9999C83.8558 29.9999 82.7477 29.7747 81.7585 29.3187C80.7689 28.8686 79.987 28.199 79.4062 27.322C78.8256 26.4391 78.5352 25.3668 78.5352 24.093C78.5352 22.9909 78.7484 22.0844 79.169 21.3794C79.5956 20.6743 80.1643 20.1116 80.8753 19.7026C81.5863 19.288 82.3861 18.9797 83.269 18.7724C84.1519 18.565 85.0524 18.411 85.9707 18.2984C87.1319 18.1683 88.074 18.0556 88.791 17.9666C89.5139 17.8778 90.0352 17.7295 90.3671 17.5281C90.6989 17.3268 90.8708 17.0009 90.8708 16.5445V16.4558C90.8708 15.3539 90.5568 14.5005 89.9405 13.8961C89.3185 13.2858 88.4002 12.9837 87.1795 12.9837C85.9117 12.9837 84.9103 13.2622 84.1817 13.8193C83.4528 14.376 82.9553 14.9983 82.6768 15.6855L79.0386 15.6526C80.9941 10.2065 87.1721 8.12336 92.05 11.2003C92.8203 11.6802 93.4483 12.3674 93.9281 13.2503C94.414 14.1332 94.6567 15.2824 94.6567 16.6985V29.5734H90.9714V24.9036C90.2465 28.3864 88.7422 29.9999 85.0881 29.9999ZM85.9058 26.9723C86.9605 26.9723 87.8551 26.765 88.5956 26.356C89.3361 25.9414 89.905 25.4022 90.2961 24.7326C90.6873 24.063 90.8827 23.3463 90.8827 22.5819V20.0815C90.7048 20.2594 90.3197 20.4134 89.7215 20.5495C89.1231 20.6797 88.4892 20.7923 87.8256 20.8873C87.1619 20.982 86.6227 21.0592 86.2081 21.1125C85.1179 21.2605 84.182 21.545 83.3997 21.9775C82.6235 22.416 82.2327 23.133 82.2327 24.1461C82.2327 25.0763 82.5761 25.7814 83.2696 26.2613C83.957 26.7352 84.8397 26.9723 85.9061 26.9723H85.9058Z" fill="white"/>
<path d="M109.415 21.533V10.181H113.207V29.573H109.492L109.522 24.7867C108.539 28.1331 106.835 29.8277 103.496 29.8277C101.636 29.8277 100.113 29.2114 98.9222 27.9731C97.7313 26.7408 97.1328 24.9217 97.1328 22.5163V10.1807H100.907V22.06C100.907 23.3811 101.274 24.4359 102.009 25.2181C102.738 26 103.691 26.3911 104.859 26.3911C105.57 26.3911 106.275 26.2133 106.974 25.8639C107.679 25.5085 108.259 24.9694 108.727 24.2524C109.195 23.5297 109.426 22.623 109.415 21.5328L109.415 21.533Z" fill="white"/>
<path d="M132.315 10.0918L125.283 29.4824H121.243L114.199 10.0918H118.252L123.162 25.0135H123.364L128.262 10.0918H132.315Z" fill="white"/>
<path d="M140.995 29.9645C139.093 29.9645 137.451 29.5499 136.071 28.7263C134.691 27.9026 133.63 26.7415 132.883 25.2483C132.137 23.755 131.764 22.0074 131.764 20.0047C131.764 18.02 132.137 16.2661 132.883 14.7553C133.63 13.2385 134.673 12.0535 136.012 11.2063C137.357 10.3532 138.927 9.93262 140.728 9.93262C142.191 9.93262 143.578 10.2585 144.887 10.9103C146.197 11.562 147.263 12.5989 148.081 14.0269C148.904 15.4549 149.313 17.339 149.313 19.6794V21.0124H135.526C135.579 22.8846 136.1 24.3245 137.108 25.3316C138.109 26.3447 139.413 26.8484 141.03 26.8484C142.109 26.8484 143.039 26.6173 143.821 26.1553C144.603 25.6873 145.166 24.9998 145.497 24.0817L149.219 24.1331C148.125 28.1604 145.014 29.9651 140.995 29.9651V29.9645ZM135.538 18.1859H145.616C145.604 16.7048 145.16 15.4782 144.277 14.5065C143.394 13.5348 142.215 13.049 140.752 13.049C139.733 13.049 138.844 13.2858 138.085 13.76C137.321 14.2399 136.723 14.8619 136.278 15.6441C135.834 16.4204 135.591 17.2675 135.538 18.1859Z" fill="white"/>
</svg>
