<svg width="53" height="35" viewBox="0 0 53 35" fill="none" xmlns="http://www.w3.org/2000/svg">
<g clip-path="url(#clip0_1026_14979)">
<path fill-rule="evenodd" clip-rule="evenodd" d="M10.6612 34.041L22.839 8.10305C23.0059 7.74725 23.388 7.56005 23.7731 7.64502C24.1583 7.73033 24.4248 8.06109 24.4248 8.45379V33.6896C24.4248 34.1459 24.7987 34.5183 25.257 34.5183H33.3596C33.8178 34.5183 34.1918 34.1459 34.1918 33.6896V25.2076V11.7955C34.1918 11.5673 34.1102 11.3709 33.948 11.2095L24.4442 1.74468C24.282 1.5832 24.0849 1.50195 23.8557 1.50195H16.3272C15.9965 1.50195 15.7137 1.68137 15.5736 1.97962L0.850768 33.3385C0.726692 33.6029 0.745389 33.8883 0.902438 34.1344C1.05983 34.3805 1.31171 34.518 1.6044 34.518H9.90795C10.2387 34.518 10.5215 34.3386 10.6616 34.0403L10.6612 34.041Z" fill="#4E2357"/>
<path fill-rule="evenodd" clip-rule="evenodd" d="M42.768 34.5203H50.8707C51.3289 34.5203 51.7028 34.1479 51.7028 33.6915V11.7974C51.7028 11.5693 51.6213 11.3729 51.4591 11.2114L41.9553 1.74663C41.7931 1.58515 41.5959 1.50391 41.3668 1.50391H33.768C33.4243 1.50391 33.1309 1.69925 32.9994 2.01545C32.8678 2.33164 32.9365 2.67626 33.1795 2.91832L41.6925 11.3963C41.8546 11.5577 41.9362 11.7541 41.9362 11.9823V33.6919C41.9362 34.1482 42.3101 34.5206 42.7684 34.5206L42.768 34.5203Z" fill="#4E2357"/>
</g>
<defs>
<clipPath id="clip0_1026_14979">
<rect width="51.5385" height="34.6154" fill="white" transform="translate(0.769531 0.307617)"/>
</clipPath>
</defs>
</svg>
