<svg width="20" height="21" viewBox="0 0 20 21" fill="none" xmlns="http://www.w3.org/2000/svg">
<path d="M15.6243 8.59261C15.6243 9.29727 15.8252 9.98616 16.2018 10.5725L17.1247 12.0092C17.9676 13.3216 17.3241 15.1054 15.858 15.5204C12.0227 16.606 7.97728 16.606 4.14197 15.5204C2.67587 15.1054 2.03235 13.3216 2.8753 12.0092L3.79817 10.5725C4.17476 9.98616 4.37573 9.29727 4.37573 8.59261V8.00544C4.37573 4.78149 6.8938 2.16797 10 2.16797" stroke="#4E2357" stroke-width="1.5" stroke-linecap="round"/>
<path d="M6.25 16.334C6.79586 17.7905 8.26871 18.834 10 18.834C11.7313 18.834 13.2041 17.7905 13.75 16.334" stroke="#4E2357" stroke-width="1.5" stroke-linecap="round"/>
<circle cx="14.5833" cy="4.2513" r="2.08333" stroke="#4E2357" stroke-width="1.5"/>
</svg>
