<svg width="20" height="20" viewBox="0 0 20 20" fill="none" xmlns="http://www.w3.org/2000/svg">
<g clip-path="url(#clip0_810_15054)">
<path d="M7.81103 4.16089C8.78537 2.41301 9.27255 1.53906 10.0009 1.53906C10.7293 1.53906 11.2164 2.413 12.1908 4.16089L12.4428 4.61309C12.7197 5.10978 12.8582 5.35813 13.074 5.52199C13.2899 5.68585 13.5587 5.74668 14.0964 5.86833L14.5859 5.97908C16.4779 6.40718 17.424 6.62123 17.649 7.34501C17.8741 8.06879 17.2292 8.82296 15.9393 10.3313L15.6056 10.7215C15.239 11.1502 15.0558 11.3645 14.9733 11.6296C14.8909 11.8947 14.9186 12.1807 14.974 12.7526L15.0244 13.2732C15.2195 15.2857 15.317 16.2919 14.7277 16.7392C14.1385 17.1865 13.2527 16.7787 11.4812 15.963L11.0228 15.752C10.5194 15.5202 10.2677 15.4043 10.0009 15.4043C9.73409 15.4043 9.48238 15.5202 8.97897 15.752L8.52065 15.963C6.74911 16.7787 5.86334 17.1865 5.27409 16.7392C4.68484 16.2919 4.78235 15.2857 4.97736 13.2732L5.02781 12.7526C5.08323 12.1807 5.11094 11.8947 5.02849 11.6296C4.94604 11.3645 4.76277 11.1502 4.39622 10.7215L4.06251 10.3313C2.77263 8.82296 2.12769 8.06879 2.35276 7.34501C2.57784 6.62123 3.52387 6.40718 5.41593 5.97908L5.90543 5.86833C6.44309 5.74668 6.71193 5.68585 6.92778 5.52199C7.14364 5.35813 7.28207 5.10978 7.55895 4.61309L7.81103 4.16089Z" stroke="#4E2357" stroke-width="1.25"/>
</g>
<defs>
<clipPath id="clip0_810_15054">
<rect y="0.000976562" width="20" height="20" rx="3.07692" fill="white"/>
</clipPath>
</defs>
</svg>
