<svg width="24" height="25" viewBox="0 0 24 25" fill="none" xmlns="http://www.w3.org/2000/svg">
<path d="M12.7917 15.9199L14.2223 14.4884C16.5926 12.1167 16.5926 8.27133 14.2223 5.89959C11.8521 3.52785 8.0091 3.52785 5.63885 5.89959L2.77769 8.76253C0.407436 11.1343 0.407436 14.9796 2.77769 17.3513C3.87688 18.4512 5.29279 19.041 6.73165 19.1208" stroke="#A6A4A4" stroke-width="1.5" stroke-linecap="round"/>
<path d="M11.2083 8.32171L9.77769 9.75317C7.40744 12.1249 7.40744 15.9703 9.77769 18.342C12.1479 20.7137 15.9909 20.7137 18.3612 18.342L21.2223 15.4791C23.5926 13.1073 23.5926 9.26197 21.2223 6.89024C20.1231 5.79036 18.7072 5.20054 17.2683 5.12079" stroke="#A6A4A4" stroke-width="1.5" stroke-linecap="round"/>
</svg>
