<svg width="24" height="24" viewBox="0 0 24 24" fill="none" xmlns="http://www.w3.org/2000/svg">
<path d="M20.8637 12.9038L21.3879 10.8974C21.9998 8.55534 22.3058 7.38429 22.0754 6.37086C21.8934 5.57067 21.4842 4.84378 20.8995 4.2821C20.1589 3.57075 19.017 3.25697 16.7332 2.6294C14.4495 2.00184 13.3076 1.68806 12.3194 1.92435C11.5392 2.11093 10.8304 2.5306 10.2827 3.1303C9.68885 3.78057 9.37916 4.73253 8.9183 6.46286C8.8409 6.75346 8.75924 7.066 8.67126 7.40275L8.6712 7.40295L8.14699 9.40935C7.53506 11.7515 7.22909 12.9225 7.4595 13.9359C7.64143 14.7361 8.05065 15.463 8.6354 16.0247C9.37598 16.736 10.5179 17.0498 12.8016 17.6774L12.8016 17.6774L12.8016 17.6774C14.86 18.243 15.9908 18.5538 16.9175 18.4365C17.0189 18.4237 17.1179 18.4058 17.2154 18.3824C17.9957 18.1959 18.7044 17.7762 19.2521 17.1765C19.9458 16.417 20.2517 15.2459 20.8637 12.9038Z" stroke="#4E2357" stroke-width="1.5"/>
<path d="M16.6169 18.0934C16.4033 18.7376 16.0277 19.3204 15.5226 19.7863C14.7734 20.4774 13.6181 20.7822 11.3076 21.3919C8.99711 22.0016 7.84186 22.3064 6.84211 22.0768C6.05272 21.8956 5.33564 21.4879 4.78154 20.9053C4.07978 20.1674 3.77023 19.0297 3.15114 16.7543L2.62078 14.8051C2.00168 12.5298 1.69214 11.3921 1.92525 10.4075C2.10931 9.63014 2.52331 8.92396 3.11492 8.37829C3.86417 7.68721 5.01942 7.38236 7.32992 6.77268C7.76704 6.65734 8.16281 6.55291 8.524 6.46094" stroke="#4E2357" stroke-width="1.5"/>
<path d="M11.8125 9.96973L16.7168 11.2838" stroke="#4E2357" stroke-width="1.5" stroke-linecap="round"/>
<path d="M11.0234 12.9121L13.966 13.7006" stroke="#4E2357" stroke-width="1.5" stroke-linecap="round"/>
</svg>
