<svg width="124" height="86" viewBox="0 0 124 86" fill="none" xmlns="http://www.w3.org/2000/svg">
<g clip-path="url(#clip0_1103_16848)">
<mask id="mask0_1103_16848" style="mask-type:luminance" maskUnits="userSpaceOnUse" x="0" y="0" width="124" height="86">
<path d="M0.0273438 0.225586H123.573V85.7753H0.0273438V0.225586Z" fill="white"/>
</mask>
<g mask="url(#mask0_1103_16848)">
<path fill-rule="evenodd" clip-rule="evenodd" d="M51.3256 9.59105C55.3136 5.47566 60.8641 2.92718 66.996 2.92718C75.1718 2.92718 82.2575 7.4298 86.0729 14.1387C89.4597 12.6379 93.128 11.863 96.8377 11.8649C111.554 11.8649 123.5 23.7968 123.5 38.5204C123.5 53.2439 111.554 65.1759 96.8377 65.1759C95.0391 65.1759 93.2858 64.9967 91.5689 64.6581C88.2304 70.5565 81.8487 74.5638 74.5813 74.5638C71.6225 74.5696 68.7016 73.9043 66.0421 72.6187C62.6582 80.4983 54.7777 86.0365 45.6026 86.0365C36.0187 86.0365 27.8883 80.048 24.7542 71.6281C23.3593 71.9199 21.9375 72.0666 20.5119 72.0658C9.11114 72.0658 -0.109375 62.7904 -0.109375 51.3988C-0.109375 43.7443 4.04213 37.0804 10.2012 33.4783C8.89459 30.4945 8.222 27.2757 8.22542 24.0228C8.22542 10.8752 18.9903 0.249023 32.2533 0.249023C40.0203 0.249023 46.9697 3.91866 51.3302 9.61447" fill="#00A1E0"/>
</g>
<path fill-rule="evenodd" clip-rule="evenodd" d="M17.8953 44.7113C17.8176 44.9121 17.923 44.954 17.948 44.9896C18.1801 45.1562 18.4158 45.2768 18.652 45.4124C19.9147 46.0743 21.1047 46.2679 22.3493 46.2679C24.8838 46.2679 26.4599 44.9306 26.4599 42.7783V42.736C26.4599 40.7459 24.6794 40.0209 23.017 39.5031L22.7994 39.4333C21.5412 39.029 20.4557 38.6769 20.4557 37.8574V37.8156C20.4557 37.1131 21.0916 36.5953 22.0727 36.5953C23.1628 36.5953 24.4618 36.9551 25.293 37.4103C25.293 37.4103 25.5392 37.5679 25.6287 37.3324C25.6773 37.205 26.1011 36.0807 26.1465 35.9546C26.1946 35.8227 26.1102 35.7232 26.0234 35.6719C25.0696 35.0955 23.7523 34.7038 22.3897 34.7038L22.1367 34.7047C19.8157 34.7047 18.1941 36.096 18.1941 38.0862V38.1289C18.1941 40.2272 19.9837 40.9116 21.6553 41.3843L21.9241 41.4672C23.1414 41.8382 24.1952 42.1606 24.1952 43.0071V43.0494C24.1952 43.8284 23.5093 44.4092 22.4102 44.4092C21.9827 44.4092 20.6206 44.402 19.1444 43.4771C18.9659 43.374 18.8641 43.2997 18.7265 43.2164C18.6538 43.1728 18.4721 43.094 18.3931 43.3299L17.8935 44.7077M55.0026 44.7077C54.9249 44.9085 55.0303 44.9504 55.0562 44.986C55.2874 45.1526 55.5241 45.2732 55.7602 45.4088C57.023 46.0707 58.213 46.2643 59.4575 46.2643C61.992 46.2643 63.5682 44.927 63.5682 42.7747V42.7324C63.5682 40.7423 61.7922 40.0173 60.1252 39.4995L59.9077 39.4297C58.6495 39.0254 57.5639 38.6733 57.5639 37.8538V37.812C57.5639 37.1095 58.1998 36.5917 59.1809 36.5917C60.271 36.5917 61.5655 36.9515 62.4013 37.4067C62.4013 37.4067 62.6475 37.5643 62.7374 37.3288C62.7855 37.2014 63.2098 36.0771 63.2507 35.951C63.2993 35.8191 63.2143 35.7196 63.128 35.6683C62.1742 35.0919 60.857 34.7002 59.4943 34.7002L59.2409 34.7011C56.9198 34.7011 55.2983 36.0924 55.2983 38.0826V38.1253C55.2983 40.2236 57.0879 40.908 58.7594 41.3807L59.0278 41.4636C60.2497 41.8346 61.2989 42.157 61.2989 43.0035V43.0458C61.2989 43.8247 60.613 44.4056 59.5139 44.4056C59.0855 44.4056 57.7197 44.3984 56.2481 43.4735C56.0696 43.3704 55.9651 43.2993 55.8297 43.2128C55.7839 43.184 55.5699 43.1012 55.4968 43.3263L54.9972 44.7041M80.3422 40.4897C80.3422 41.7054 80.1133 42.6644 79.6654 43.3443C79.2185 44.0152 78.5435 44.3439 77.6033 44.3439C76.6631 44.3439 75.9909 44.0179 75.5503 43.3488C75.1065 42.6734 74.8826 41.7099 74.8826 40.4942C74.8826 39.2785 75.1079 38.3239 75.5503 37.653C75.99 36.9866 76.6586 36.6669 77.6033 36.6669C78.5481 36.6669 79.2203 36.9898 79.6654 37.653C80.116 38.3239 80.3422 39.2785 80.3422 40.4942M82.4589 38.2384C82.2504 37.5404 81.9274 36.9281 81.4959 36.4148C81.064 35.9015 80.5194 35.4873 79.8698 35.1901C79.2249 34.8907 78.4618 34.7398 77.5988 34.7398C76.7358 34.7398 75.9772 34.8916 75.3277 35.1901C74.6827 35.4891 74.1331 35.9015 73.7016 36.4148C73.271 36.9281 72.9476 37.5404 72.7387 38.2384C72.532 38.9318 72.4271 39.6882 72.4271 40.4942C72.4271 41.3001 72.532 42.0566 72.7387 42.75C72.9463 43.4479 73.2701 44.0602 73.7016 44.5735C74.1336 45.0868 74.6827 45.4966 75.3277 45.7892C75.9772 46.081 76.7403 46.2296 77.5988 46.2296C78.4572 46.2296 79.2203 46.081 79.8653 45.7892C80.5103 45.4975 81.0599 45.0868 81.4914 44.5735C81.9224 44.0602 82.2454 43.4479 82.4543 42.75C82.6605 42.0566 82.7654 41.3001 82.7654 40.4942C82.7654 39.6927 82.6605 38.9318 82.4543 38.2384M99.8507 44.0017C99.7812 43.7977 99.5804 43.8747 99.5804 43.8747C99.2729 43.9913 98.9445 44.0994 98.5948 44.1534C98.2423 44.2084 97.8498 44.2358 97.4365 44.2358C96.4145 44.2358 95.5969 43.9337 95.0156 43.3353C94.4296 42.7365 94.1026 41.7729 94.1071 40.4671C94.1103 39.2785 94.4001 38.3869 94.9202 37.7025C95.4334 37.0271 96.2238 36.6759 97.2685 36.6759C98.1405 36.6759 98.8082 36.7764 99.5077 36.9934C99.5077 36.9934 99.6735 37.065 99.753 36.8484C99.9388 36.3396 100.076 35.9749 100.275 35.4166C100.332 35.2567 100.194 35.1892 100.143 35.1698C99.8688 35.0636 99.2211 34.8893 98.7306 34.8159C98.2718 34.7466 97.7404 34.7105 97.1408 34.7105C96.2506 34.7105 95.4602 34.8614 94.7835 35.1604C94.1067 35.4589 93.5344 35.8718 93.0802 36.3851C92.6259 36.8984 92.2807 37.5107 92.0491 38.2086C91.8197 38.902 91.7039 39.663 91.7039 40.4689C91.7039 42.207 92.1763 43.6163 93.112 44.6474C94.0476 45.683 95.4557 46.2053 97.2907 46.2053C98.3763 46.2053 99.4891 45.9878 100.289 45.674C100.289 45.674 100.441 45.601 100.375 45.4245L99.8525 44.0017M103.554 39.319C103.656 38.6436 103.842 38.0808 104.136 37.644C104.575 36.9776 105.244 36.6129 106.184 36.6129C107.124 36.6129 107.747 36.9794 108.192 37.644C108.487 38.083 108.616 38.6661 108.664 39.319L103.532 39.3181L103.554 39.319ZM110.685 37.8331C110.505 37.1622 110.059 36.4823 109.768 36.1716C109.305 35.6809 108.855 35.3342 108.405 35.1451C107.756 34.8714 107.058 34.731 106.352 34.7322C105.457 34.7322 104.644 34.8821 103.986 35.1869C103.327 35.494 102.773 35.9118 102.337 36.4342C101.901 36.9565 101.574 37.5733 101.365 38.2802C101.156 38.9781 101.051 39.7436 101.051 40.545C101.051 41.3645 101.16 42.1255 101.375 42.8144C101.593 43.5078 101.943 44.1156 102.416 44.6199C102.888 45.1287 103.492 45.5249 104.219 45.8041C104.941 46.081 105.818 46.2246 106.821 46.2215C108.893 46.2147 109.983 45.7577 110.428 45.5101C110.507 45.466 110.582 45.3899 110.489 45.1706L110.021 43.8693C109.949 43.6753 109.751 43.7455 109.751 43.7455C109.238 43.9355 108.511 44.2768 106.808 44.2723C105.695 44.2705 104.873 43.945 104.355 43.4348C103.828 42.9125 103.565 42.1516 103.524 41.0709L110.7 41.0764C110.7 41.0764 110.889 41.0746 110.909 40.8917C110.917 40.8161 111.155 39.4329 110.695 37.8345L110.685 37.8331ZM46.1873 39.319C46.2886 38.6436 46.4757 38.0808 46.7687 37.644C47.2083 36.9776 47.8769 36.6129 48.8172 36.6129C49.7574 36.6129 50.3796 36.9794 50.8248 37.644C51.1196 38.083 51.2486 38.6661 51.2972 39.319L46.1646 39.3181L46.1873 39.319ZM53.3184 37.8331C53.1385 37.1622 52.6916 36.4823 52.4009 36.1716C51.9376 35.6809 51.4879 35.3342 51.0382 35.1451C50.389 34.8714 49.6907 34.731 48.9852 34.7322C48.0904 34.7322 47.2774 34.8821 46.6188 35.1869C45.9602 35.494 45.406 35.9118 44.97 36.4342C44.5353 36.9565 44.2069 37.5733 43.998 38.2802C43.7895 38.9781 43.6846 39.7436 43.6846 40.545C43.6846 41.3645 43.7931 42.1255 44.0098 42.8144C44.2269 43.5078 44.5775 44.1156 45.0454 44.6199C45.5178 45.1287 46.1219 45.5249 46.8486 45.8041C47.5708 46.081 48.4429 46.2246 49.4512 46.2215C51.5224 46.2147 52.6126 45.7577 53.0577 45.5101C53.1367 45.466 53.2121 45.3899 53.1181 45.1706L52.6503 43.8693C52.578 43.6753 52.38 43.7455 52.38 43.7455C51.8667 43.9355 51.14 44.2768 49.4367 44.2723C48.3284 44.2705 47.5018 43.945 46.984 43.4348C46.4571 42.9125 46.1936 42.1516 46.1527 41.0709L53.3293 41.0764C53.3293 41.0764 53.5183 41.0746 53.5378 40.8917C53.5455 40.8161 53.7835 39.4329 53.3234 37.8345L53.3184 37.8331ZM30.6986 43.9567C30.4175 43.7342 30.3784 43.6798 30.2853 43.5352C30.1431 43.3178 30.0704 43.0084 30.0704 42.6122C30.0704 41.9908 30.2794 41.5406 30.7109 41.2389C30.7063 41.2398 31.3286 40.7076 32.7912 40.7256C33.4422 40.7372 34.0916 40.7921 34.7352 40.8899V44.1183H34.7361C34.7361 44.1183 33.8277 44.3124 32.8012 44.3736C31.3431 44.4605 30.6982 43.9576 30.7027 43.9589L30.6986 43.9567ZM33.5511 38.9588C33.2604 38.9376 32.8834 38.9273 32.4337 38.9273C31.8205 38.9273 31.2255 39.0029 30.6714 39.1515C30.1127 39.301 29.6085 39.5324 29.177 39.8404C28.7443 40.1464 28.3884 40.5469 28.1369 41.0111C27.883 41.4793 27.7535 42.0287 27.7535 42.65C27.7535 43.2804 27.8639 43.8252 28.0819 44.271C28.2955 44.7131 28.6172 45.0954 29.0176 45.3831C29.4159 45.6704 29.9078 45.8829 30.4756 46.009C31.0388 46.1364 31.6747 46.2008 32.3742 46.2008C33.11 46.2008 33.8413 46.1395 34.5499 46.0211C35.1534 45.9179 35.7546 45.802 36.3531 45.6735C36.592 45.619 36.8573 45.5475 36.8573 45.5475C37.0344 45.5029 37.0208 45.3151 37.0208 45.3151L37.0167 38.8313C37.0167 37.4085 36.6334 36.3504 35.8766 35.6975C35.1226 35.0446 34.0189 34.716 32.5881 34.716C32.0522 34.716 31.1846 34.788 30.6668 34.8911C30.6668 34.8911 29.1043 35.1919 28.4594 35.6926C28.4594 35.6926 28.3176 35.779 28.3949 35.9749L28.9036 37.3257C28.9667 37.5008 29.1389 37.4409 29.1389 37.4409C29.1389 37.4409 29.1929 37.4198 29.2565 37.3824C30.6328 36.6395 32.3769 36.662 32.3769 36.662C33.1491 36.662 33.7487 36.8173 34.1484 37.1213C34.5394 37.4189 34.7388 37.8687 34.7388 38.8142V39.1146C34.1257 39.0263 33.5579 38.9754 33.5579 38.9754L33.5511 38.9588ZM91.2361 35.2981C91.2464 35.2744 91.2518 35.2488 91.2519 35.223C91.2521 35.1971 91.247 35.1715 91.2369 35.1476C91.2269 35.1238 91.2121 35.1022 91.1935 35.0841C91.1748 35.066 91.1527 35.0518 91.1284 35.0424C91.0062 34.9965 90.3971 34.869 89.9293 34.8402C89.0299 34.7844 88.5303 34.9348 88.0806 35.1347C87.6364 35.3333 87.145 35.6525 86.8724 36.0217L86.8715 35.1572C86.8715 35.0383 86.7866 34.9424 86.6658 34.9424H84.8308C84.7118 34.9424 84.6255 35.0383 84.6255 35.1572V45.7384C84.6256 45.7955 84.6485 45.8503 84.6893 45.8907C84.7301 45.9312 84.7854 45.9539 84.843 45.954H86.7235C86.7811 45.9539 86.8363 45.9311 86.877 45.8907C86.9177 45.8503 86.9406 45.7955 86.9406 45.7384V40.4253C86.9406 39.7139 87.0196 39.0069 87.1772 38.5612C87.3326 38.1204 87.5438 37.7687 87.804 37.5166C88.0523 37.273 88.3561 37.0924 88.6897 36.9898C89.0028 36.9007 89.327 36.8555 89.6527 36.8556C90.0274 36.8556 90.4385 36.9511 90.4385 36.9511C90.5765 36.9664 90.6533 36.8826 90.7001 36.7592C90.8232 36.4346 91.1725 35.4625 91.2406 35.2689" fill="#FFFFFE"/>
<path fill-rule="evenodd" clip-rule="evenodd" d="M73.6728 30.4145C73.4403 30.3449 73.2039 30.2892 72.9646 30.2479C72.6429 30.1947 72.317 30.1697 71.9908 30.1732C70.695 30.1732 69.6734 30.5361 68.9562 31.2529C68.244 31.9643 67.7594 33.0481 67.5164 34.4741L67.4287 34.9554H65.8022C65.8022 34.9554 65.6037 34.9473 65.5619 35.1621L65.2948 36.6389C65.2762 36.7803 65.3375 36.8686 65.5283 36.8677H67.1117L65.5051 45.7572C65.3793 46.4731 65.2353 47.062 65.0759 47.5083C64.9187 47.9486 64.7652 48.2787 64.5763 48.5182C64.3932 48.7501 64.2197 48.9207 63.9204 49.0202C63.6733 49.1026 63.3889 49.1405 63.0773 49.1405C62.9038 49.1405 62.6731 49.1116 62.5028 49.0779C62.3324 49.0445 62.2439 49.0067 62.1162 48.9536C62.1162 48.9536 61.9305 48.8834 61.8573 49.068C61.7978 49.2188 61.3759 50.3692 61.3259 50.5115C61.275 50.652 61.3463 50.7627 61.4363 50.7947C61.647 50.8695 61.8037 50.9172 62.0908 50.9843C62.4896 51.0775 62.8257 51.0833 63.1405 51.0833C63.8 51.0833 64.4009 50.9915 64.8992 50.8132C65.4006 50.6335 65.8371 50.3206 66.2232 49.8969C66.6406 49.4399 66.9032 48.9613 67.1544 48.3084C67.4028 47.6613 67.6145 46.8581 67.7839 45.922L69.3982 36.8677H71.7583C71.7583 36.8677 71.9572 36.8749 71.9985 36.661L72.2656 35.1841C72.2842 35.0428 72.2234 34.9545 72.0317 34.9554H69.7411C69.7525 34.9041 69.8565 34.1053 70.1195 33.3534C70.2317 33.0323 70.4429 32.7734 70.6218 32.5956C70.7889 32.4262 70.9947 32.2992 71.2218 32.2255C71.4708 32.1492 71.7303 32.1121 71.9908 32.1156C72.2066 32.1156 72.4182 32.1413 72.5795 32.1746C72.8016 32.2214 72.8879 32.2462 72.946 32.2633C73.1795 32.334 73.2108 32.2655 73.2567 32.1534L73.8045 30.6622C73.8608 30.5019 73.7236 30.4343 73.6728 30.4145ZM41.6626 45.7761C41.6626 45.895 41.5772 45.9918 41.4573 45.9918H39.5573C39.437 45.9918 39.3516 45.895 39.3516 45.7761V30.6167C39.3516 30.4983 39.437 30.4024 39.5573 30.4024H41.4573C41.5772 30.4024 41.6626 30.4983 41.6626 30.6167V45.7761Z" fill="#FFFFFE"/>
</g>
<defs>
<clipPath id="clip0_1103_16848">
<rect width="124" height="86" fill="white"/>
</clipPath>
</defs>
</svg>
