<svg width="24" height="25" viewBox="0 0 24 25" fill="none" xmlns="http://www.w3.org/2000/svg">
<path d="M4 10.6957C4 7.81789 4 6.37898 4.33557 5.8949C4.67114 5.41081 6.0074 4.94769 8.67992 4.02144L9.18909 3.84497C10.5822 3.36214 11.2788 3.12073 12 3.12073C12.7212 3.12073 13.4178 3.36214 14.8109 3.84497L15.3201 4.02144C17.9926 4.94769 19.3289 5.41081 19.6644 5.8949C20 6.37898 20 7.81789 20 10.6957C20 11.1304 20 11.6018 20 12.113C20 17.1872 16.232 19.6497 13.8679 20.6953C13.2267 20.9789 12.906 21.1207 12 21.1207C11.094 21.1207 10.7733 20.9789 10.1321 20.6953C7.76797 19.6497 4 17.1872 4 12.113C4 11.6018 4 11.1304 4 10.6957Z" stroke="#A6A4A4" stroke-width="1.5"/>
<path d="M4 11.1207L12 8.12073L20 11.1207" stroke="#A6A4A4" stroke-width="1.5"/>
<path d="M12 3.12073V21.1207" stroke="#A6A4A4" stroke-width="1.5"/>
</svg>
