<svg width="24" height="24" viewBox="0 0 24 24" fill="none" xmlns="http://www.w3.org/2000/svg">
<path d="M9.37245 4.9919C10.5417 2.89443 11.1263 1.8457 12.0003 1.8457C12.8743 1.8457 13.4589 2.89443 14.6281 4.99189L14.9306 5.53453C15.2629 6.13057 15.429 6.42858 15.688 6.62522C15.9471 6.82185 16.2697 6.89484 16.9149 7.04082L17.5023 7.17373C19.7727 7.68745 20.908 7.9443 21.1781 8.81284C21.4482 9.68137 20.6742 10.5864 19.1264 12.3964L18.7259 12.8647C18.2861 13.379 18.0661 13.6362 17.9672 13.9544C17.8683 14.2725 17.9015 14.6157 17.968 15.3019L18.0285 15.9267C18.2626 18.3416 18.3796 19.5491 17.6725 20.0859C16.9654 20.6227 15.9024 20.1333 13.7766 19.1545L13.2266 18.9012C12.6225 18.6231 12.3205 18.484 12.0003 18.484C11.6801 18.484 11.3781 18.6231 10.774 18.9012L10.224 19.1545C8.09815 20.1333 7.03523 20.6227 6.32813 20.0859C5.62103 19.5491 5.73804 18.3416 5.97205 15.9267L6.03259 15.3019C6.09909 14.6157 6.13234 14.2725 6.0334 13.9544C5.93447 13.6362 5.71454 13.379 5.27469 12.8647L4.87424 12.3964C3.32638 10.5864 2.55245 9.68137 2.82254 8.81284C3.09262 7.9443 4.22786 7.68745 6.49833 7.17373L7.08573 7.04083C7.73093 6.89484 8.05353 6.82185 8.31256 6.62522C8.57158 6.42858 8.73771 6.13057 9.06996 5.53453L9.37245 4.9919Z" stroke="#4E2357" stroke-width="1.5"/>
</svg>
