<svg width="24" height="24" viewBox="0 0 24 24" fill="none" xmlns="http://www.w3.org/2000/svg">
<path d="M3.35938 10.4804C3.35938 7.41073 3.35938 5.87589 3.72179 5.35953C4.0842 4.84318 5.52737 4.34918 8.41369 3.36118L8.96359 3.17295C10.4682 2.65793 11.2204 2.40042 11.9994 2.40042C12.7783 2.40042 13.5306 2.65793 15.0352 3.17295L15.5851 3.36118C18.4714 4.34918 19.9145 4.84318 20.277 5.35953C20.6394 5.87589 20.6394 7.41073 20.6394 10.4804C20.6394 10.9441 20.6394 11.4469 20.6394 11.9921C20.6394 17.4047 16.57 20.0313 14.0168 21.1466C13.3242 21.4492 12.9779 21.6004 11.9994 21.6004C11.0209 21.6004 10.6746 21.4491 9.98199 21.1466C7.42878 20.0313 3.35938 17.4047 3.35938 11.9921C3.35938 11.4469 3.35938 10.9441 3.35938 10.4804Z" stroke="#292929" stroke-width="1.5"/>
<path d="M15.8402 11.568L12.5762 9.11995C12.2348 8.86395 11.7655 8.86395 11.4242 9.11995L8.16016 11.568M13.9202 13.968L12.0002 12.528L10.0802 13.968" stroke="#292929" stroke-width="1.5" stroke-linecap="round" stroke-linejoin="round"/>
</svg>
