<svg width="50" height="50" viewBox="0 0 50 50" fill="none" xmlns="http://www.w3.org/2000/svg">
<path d="M14.9039 20.4606C12.0305 20.4606 10.3064 16.0703 10.9051 13.5074C11.36 11.5377 13.108 10.2088 14.9039 10.2088C16.6998 10.2088 18.4478 11.5377 18.9027 13.5074C19.5013 16.0703 17.7773 20.4606 14.9039 20.4606ZM14.9039 20.4606C9.37259 20.4606 6.35551 24.661 7.91194 29.6682L10.4741 38.33C10.953 39.8014 12.8686 40.7743 14.9039 40.7743M36.0953 20.4606C33.2458 20.4606 31.5218 16.0703 32.1204 13.5074C32.5754 11.5377 34.3233 10.2088 36.0953 10.2088C37.8912 10.2088 39.6391 11.5377 40.0941 13.5074C40.6927 16.0703 38.9687 20.4606 36.0953 20.4606ZM36.0953 20.4606C41.6266 20.4606 44.6676 24.661 43.0872 29.6682L40.5251 38.33C40.0462 39.8014 38.1306 40.7743 36.0953 40.7743M20.7944 11.3716C20.1 14.4092 22.1114 19.5825 25.5116 19.5825C28.8878 19.5825 30.8992 14.4092 30.2048 11.3716C29.678 9.04594 27.6187 7.50342 25.5116 7.50342C23.3804 7.50342 21.3451 9.04594 20.7944 11.3716ZM30.7076 40.632L33.7008 30.4276C35.5685 24.5186 32.0007 20.8877 25.5116 20.8877C18.9985 20.8877 15.4307 24.5186 17.2745 30.4276L20.2915 40.632C20.8423 42.3406 23.1171 43.5034 25.5116 43.5034C27.8582 43.5034 30.1569 42.3406 30.7076 40.632Z" stroke="#4E2357" stroke-width="2.5" stroke-linecap="round"/>
</svg>
